<?xml version="1.0" encoding="utf-8"?>
<!-- Generator: Adobe Illustrator 24.0.3, SVG Export Plug-In . SVG Version: 6.00 Build 0)  -->
<svg version="1.1" id="Capa_1" xmlns="http://www.w3.org/2000/svg" xmlns:xlink="http://www.w3.org/1999/xlink" x="0px" y="0px"
	 viewBox="0 0 206 29" style="enable-background:new 0 0 206 29;" xml:space="preserve">
<style type="text/css">
	.st0{fill:#FFFFFF;}
	.st1{fill:#939AA3;}
	.st2{fill:#5FC5F1;}
</style>
<g>
	<g>
		<path class="st0" d="M3,2.6h10v3.7H7.9v16.5H13v3.7H3V2.6z"/>
	</g>
	<g>
		<path class="st0" d="M37.4,22.7h5.1V6.3h-5.1V2.6h10v23.9h-10V22.7z"/>
	</g>
	<g>
		<path class="st1" d="M53.6,4.7h5.2v7.1c0.5-0.6,1-1.2,1.7-1.6c0.7-0.5,1.6-0.7,2.6-0.7c1.6,0,2.8,0.5,3.7,1.4
			c0.9,1,1.3,2.3,1.3,3.9v9.6h-5.2v-7.9c0-0.8-0.2-1.4-0.6-1.8c-0.4-0.4-0.9-0.6-1.5-0.6c-0.6,0-1.1,0.2-1.5,0.6
			c-0.4,0.4-0.6,1-0.6,1.8v7.9h-5.2V4.7z"/>
		<path class="st1" d="M77.3,24.8c-1.2,0-2.2-0.2-3.2-0.6c-1-0.4-1.8-0.9-2.5-1.5C71,22,70.4,21.2,70,20.3s-0.6-2-0.6-3.1v-0.1
			c0-1.1,0.2-2.1,0.5-3c0.4-0.9,0.9-1.7,1.5-2.4c0.7-0.7,1.4-1.2,2.3-1.6c0.9-0.4,1.9-0.6,3-0.6c1.3,0,2.4,0.2,3.3,0.6
			c0.9,0.4,1.7,1,2.3,1.7c0.6,0.7,1.1,1.6,1.3,2.5c0.3,1,0.4,2,0.4,3.1c0,0.2,0,0.3,0,0.5s0,0.4,0,0.5h-9.8c0.2,0.8,0.6,1.4,1.1,1.8
			c0.5,0.4,1.2,0.6,2,0.6c0.6,0,1.2-0.1,1.7-0.4c0.5-0.2,1-0.6,1.6-1.1l2.8,2.3c-0.7,0.9-1.6,1.6-2.6,2.2
			C80,24.5,78.7,24.8,77.3,24.8z M79.4,15.9c-0.1-0.8-0.4-1.5-0.8-1.9s-1-0.7-1.7-0.7c-0.7,0-1.2,0.2-1.7,0.7
			c-0.4,0.5-0.7,1.1-0.9,1.9H79.4z"/>
		<path class="st1" d="M89.7,24.7c-0.7,0-1.3-0.1-1.9-0.3c-0.6-0.2-1.1-0.5-1.6-0.9c-0.4-0.4-0.8-0.8-1-1.4
			c-0.3-0.6-0.4-1.2-0.4-1.9v-0.1c0-0.8,0.1-1.4,0.4-2c0.3-0.6,0.7-1.1,1.2-1.4c0.5-0.4,1.1-0.7,1.8-0.9c0.7-0.2,1.5-0.3,2.3-0.3
			c0.7,0,1.3,0.1,2,0.2c0.6,0.1,1.1,0.2,1.6,0.4v-0.2c0-0.8-0.2-1.3-0.7-1.8c-0.5-0.4-1.2-0.6-2.2-0.6c-0.8,0-1.5,0.1-2.1,0.2
			c-0.6,0.1-1.3,0.3-1.9,0.6l-1.1-3.6c0.8-0.3,1.7-0.6,2.6-0.8c0.9-0.2,2-0.3,3.3-0.3c1.3,0,2.4,0.2,3.3,0.5
			c0.9,0.3,1.7,0.7,2.2,1.3c0.6,0.5,1,1.2,1.2,2c0.2,0.8,0.4,1.7,0.4,2.7v8.4H94v-1.5c-0.5,0.6-1.1,1-1.8,1.3
			C91.5,24.6,90.7,24.7,89.7,24.7z M91.6,21.5c0.8,0,1.4-0.2,1.8-0.6c0.5-0.4,0.7-1,0.7-1.8v-0.7c-0.3-0.1-0.6-0.2-0.9-0.3
			c-0.4-0.1-0.7-0.1-1.1-0.1c-0.8,0-1.3,0.2-1.7,0.5c-0.4,0.3-0.6,0.8-0.6,1.3v0.1c0,0.5,0.2,0.9,0.5,1.2
			C90.6,21.4,91.1,21.5,91.6,21.5z"/>
		<path class="st1" d="M100.4,9.8h5.2v2.9c0.4-1,1-1.8,1.7-2.4c0.7-0.6,1.7-0.9,2.9-0.8V15h-0.4c-1.3,0-2.4,0.4-3.1,1.2
			c-0.7,0.8-1.1,2-1.1,3.7v4.5h-5.2V9.8z"/>
		<path class="st1" d="M117.7,24.7c-1.6,0-2.8-0.4-3.6-1.1c-0.9-0.7-1.3-2-1.3-3.7V14h-1.7V9.8h1.7V6.1h5.2v3.7h3.4V14H118v4.9
			c0,0.5,0.1,0.9,0.4,1.1c0.2,0.2,0.6,0.3,1.1,0.3c0.3,0,0.7,0,1-0.1c0.3-0.1,0.6-0.2,0.9-0.4v4c-0.5,0.3-1,0.5-1.6,0.6
			C119.1,24.6,118.5,24.7,117.7,24.7z"/>
		<path class="st0" d="M130.6,24.8c-1.1,0-2.1-0.2-3-0.6c-0.9-0.4-1.7-0.9-2.4-1.6c-0.7-0.7-1.2-1.5-1.6-2.4
			c-0.4-0.9-0.6-1.9-0.6-2.9v-0.1c0-1,0.2-2,0.6-2.9c0.4-0.9,0.9-1.7,1.6-2.4c0.7-0.7,1.5-1.2,2.5-1.6c1-0.4,2-0.6,3.2-0.6
			c1.5,0,2.8,0.3,3.8,0.9c1,0.6,1.8,1.4,2.5,2.4l-3.5,2.6c-0.4-0.5-0.7-0.9-1.2-1.1c-0.4-0.3-0.9-0.4-1.6-0.4
			c-0.4,0-0.8,0.1-1.1,0.3c-0.4,0.2-0.7,0.4-0.9,0.7c-0.3,0.3-0.4,0.6-0.6,1c-0.1,0.4-0.2,0.8-0.2,1.3v0.1c0,0.5,0.1,0.9,0.2,1.3
			c0.1,0.4,0.3,0.8,0.6,1.1c0.3,0.3,0.6,0.5,0.9,0.7c0.4,0.2,0.8,0.3,1.2,0.3c0.6,0,1.1-0.1,1.6-0.4c0.4-0.3,0.8-0.6,1.3-1.1
			l3.4,2.5c-0.7,1-1.5,1.8-2.6,2.4C133.5,24.5,132.2,24.8,130.6,24.8z"/>
		<path class="st0" d="M145,24.8c-1.2,0-2.2-0.2-3.2-0.6c-1-0.4-1.8-0.9-2.6-1.6c-0.7-0.7-1.3-1.5-1.7-2.4c-0.4-0.9-0.6-1.9-0.6-2.9
			v-0.1c0-1,0.2-2,0.6-3c0.4-0.9,1-1.7,1.7-2.4s1.6-1.2,2.6-1.6c1-0.4,2.1-0.6,3.2-0.6c1.2,0,2.2,0.2,3.2,0.6c1,0.4,1.8,0.9,2.5,1.6
			c0.7,0.7,1.3,1.5,1.7,2.4c0.4,0.9,0.6,1.9,0.6,2.9v0.1c0,1-0.2,2-0.6,3s-1,1.7-1.7,2.4c-0.7,0.7-1.6,1.2-2.6,1.6
			C147.2,24.6,146.2,24.8,145,24.8z M145,20.4c0.5,0,0.9-0.1,1.3-0.3c0.4-0.2,0.7-0.4,1-0.7c0.3-0.3,0.5-0.6,0.6-1
			c0.1-0.4,0.2-0.8,0.2-1.2v-0.1c0-0.4-0.1-0.9-0.2-1.3c-0.2-0.4-0.4-0.7-0.6-1c-0.3-0.3-0.6-0.5-1-0.7c-0.4-0.2-0.8-0.3-1.2-0.3
			c-0.5,0-0.9,0.1-1.3,0.3c-0.4,0.2-0.7,0.4-1,0.7c-0.3,0.3-0.5,0.6-0.6,1c-0.1,0.4-0.2,0.8-0.2,1.2v0.1c0,0.4,0.1,0.9,0.2,1.3
			c0.2,0.4,0.4,0.7,0.6,1c0.3,0.3,0.6,0.5,1,0.7C144.2,20.3,144.6,20.4,145,20.4z"/>
		<path class="st0" d="M160.5,24.7c-0.9,0-1.7-0.2-2.5-0.5c-0.8-0.4-1.5-0.8-2.1-1.5c-0.6-0.6-1.1-1.4-1.4-2.4
			c-0.4-0.9-0.5-2-0.5-3.2v-0.1c0-1.2,0.2-2.3,0.5-3.2c0.3-0.9,0.8-1.7,1.4-2.4c0.6-0.7,1.3-1.2,2-1.5c0.8-0.4,1.6-0.5,2.4-0.5
			c1.1,0,2,0.2,2.7,0.6c0.7,0.4,1.3,0.9,1.8,1.5V4.7h5.2v19.7h-5.2l0-1.9c-0.5,0.6-1.1,1.1-1.8,1.6
			C162.5,24.5,161.6,24.7,160.5,24.7z M162,20.5c0.4,0,0.8-0.1,1.2-0.2c0.4-0.2,0.7-0.4,0.9-0.7c0.3-0.3,0.5-0.6,0.6-1.1
			c0.2-0.4,0.2-0.8,0.2-1.3v-0.1c0-0.5-0.1-0.9-0.2-1.3c-0.2-0.4-0.4-0.7-0.6-1c-0.3-0.3-0.6-0.5-0.9-0.7c-0.4-0.2-0.7-0.2-1.2-0.2
			c-0.4,0-0.8,0.1-1.2,0.2c-0.4,0.2-0.7,0.4-0.9,0.7s-0.5,0.6-0.6,1c-0.2,0.4-0.2,0.8-0.2,1.3v0.1c0,0.5,0.1,0.9,0.2,1.3
			c0.2,0.4,0.4,0.8,0.6,1.1c0.3,0.3,0.6,0.5,0.9,0.7C161.2,20.4,161.6,20.5,162,20.5z"/>
		<path class="st0" d="M179.1,24.8c-1.2,0-2.2-0.2-3.2-0.6c-1-0.4-1.8-0.9-2.5-1.5c-0.7-0.7-1.2-1.5-1.6-2.4c-0.4-0.9-0.6-2-0.6-3.1
			v-0.1c0-1.1,0.2-2.1,0.5-3c0.4-0.9,0.9-1.7,1.5-2.4c0.7-0.7,1.4-1.2,2.3-1.6c0.9-0.4,1.9-0.6,3-0.6c1.3,0,2.4,0.2,3.3,0.6
			c0.9,0.4,1.7,1,2.3,1.7c0.6,0.7,1.1,1.6,1.3,2.5c0.3,1,0.4,2,0.4,3.1c0,0.2,0,0.3,0,0.5s0,0.4,0,0.5h-9.8c0.2,0.8,0.6,1.4,1.1,1.8
			c0.5,0.4,1.2,0.6,2,0.6c0.6,0,1.2-0.1,1.7-0.4c0.5-0.2,1-0.6,1.6-1.1l2.8,2.3c-0.7,0.9-1.6,1.6-2.6,2.2
			C181.8,24.5,180.6,24.8,179.1,24.8z M181.2,15.9c-0.1-0.8-0.4-1.5-0.8-1.9c-0.4-0.5-1-0.7-1.7-0.7c-0.7,0-1.2,0.2-1.7,0.7
			c-0.4,0.5-0.7,1.1-0.9,1.9H181.2z"/>
		<path class="st0" d="M193.4,24.7c-0.9,0-1.7-0.2-2.5-0.5c-0.8-0.4-1.5-0.8-2.1-1.5c-0.6-0.6-1.1-1.4-1.4-2.4
			c-0.4-0.9-0.5-2-0.5-3.2v-0.1c0-1.2,0.2-2.3,0.5-3.2c0.3-0.9,0.8-1.7,1.4-2.4c0.6-0.7,1.3-1.2,2-1.5c0.8-0.4,1.6-0.5,2.4-0.5
			c1.1,0,2,0.2,2.7,0.6c0.7,0.4,1.3,0.9,1.8,1.5V4.7h5.2v19.7h-5.2l0-1.9c-0.5,0.6-1.1,1.1-1.8,1.6
			C195.4,24.5,194.5,24.7,193.4,24.7z M195,20.5c0.4,0,0.8-0.1,1.2-0.2c0.4-0.2,0.7-0.4,0.9-0.7c0.3-0.3,0.5-0.6,0.6-1.1
			c0.2-0.4,0.2-0.8,0.2-1.3v-0.1c0-0.5-0.1-0.9-0.2-1.3c-0.2-0.4-0.4-0.7-0.6-1c-0.3-0.3-0.6-0.5-0.9-0.7c-0.4-0.2-0.7-0.2-1.2-0.2
			c-0.4,0-0.8,0.1-1.2,0.2c-0.4,0.2-0.7,0.4-0.9,0.7c-0.3,0.3-0.5,0.6-0.6,1c-0.2,0.4-0.2,0.8-0.2,1.3v0.1c0,0.5,0.1,0.9,0.2,1.3
			c0.2,0.4,0.4,0.8,0.6,1.1c0.3,0.3,0.6,0.5,0.9,0.7C194.2,20.4,194.6,20.5,195,20.5z"/>
	</g>
	<g>
		<g>
			<defs>
				<path id="SVGID_1_" d="M25.2,25.3l-1.5-1.5c-5.7-5.1-9.5-8.5-9.5-12.7c0-3.4,2.7-6.1,6.1-6.1c1.9,0,3.8,0.9,5,2.3
					c1.2-1.4,3.1-2.3,5-2.3c3.4,0,6.1,2.7,6.1,6.1c0,4.2-3.8,7.6-9.5,12.7L25.2,25.3z"/>
			</defs>
			<use xlink:href="#SVGID_1_"  style="overflow:visible;fill:#5FC5F1;"/>
			<clipPath id="SVGID_2_">
				<use xlink:href="#SVGID_1_"  style="overflow:visible;"/>
			</clipPath>
		</g>
		<g>
			<g id="favorite_17_">
				<g>
					<path class="st2" d="M30.2,5.3c3.3,0,5.8,2.6,5.8,5.8c0,4-3.4,7.2-9.4,12.5l-1.4,1.4l-1.4-1.4c-6-5.3-9.4-8.5-9.4-12.5
						c0-3.3,2.6-5.8,5.8-5.8c1.8,0,3.6,0.9,4.8,2.2l0.2,0.2l0.2-0.2C26.6,6.1,28.4,5.3,30.2,5.3 M30.2,5c-1.9,0-3.8,0.9-5,2.3
						C24,5.9,22.1,5,20.2,5c-3.4,0-6.1,2.7-6.1,6.1c0,4.2,3.8,7.6,9.5,12.7l1.5,1.5l1.5-1.5c5.7-5.1,9.5-8.5,9.5-12.7
						C36.2,7.6,33.6,5,30.2,5L30.2,5z"/>
				</g>
			</g>
		</g>
	</g>
</g>
</svg>
